<svg width="33" height="33" viewBox="0 0 33 33" fill="none" xmlns="http://www.w3.org/2000/svg">
<path d="M16.1701 0C25.465 0 33.0001 7.53441 33.0001 16.8286C33.0001 26.1227 25.465 33.6572 16.1701 33.6572C13.4465 33.6572 10.8145 33.0086 8.44993 31.7858L2.01108 33.5819C0.892016 33.8944 -0.26848 33.2407 -0.580963 32.1217C-0.684383 31.7515 -0.684332 31.3599 -0.580895 30.99L1.21598 24.5566C-0.00965148 22.1902 -0.659912 19.5553 -0.659912 16.8286C-0.659912 7.53441 6.87513 0 16.1701 0ZM16.1701 2.52429C8.26938 2.52429 1.86459 8.92854 1.86459 16.8286C1.86459 19.3017 2.49196 21.6809 3.6705 23.7914L3.92404 24.2453L2.05133 30.9501L8.76076 29.0784L9.2144 29.3314C11.3231 30.507 13.6998 31.1329 16.1701 31.1329C24.0708 31.1329 30.4756 24.7286 30.4756 16.8286C30.4756 8.92854 24.0708 2.52429 16.1701 2.52429Z" fill="#666666"/>
</svg>
